# xmcd CD database file
#
# Track frame offsets:
#	150
#	11787
#	35621
#	53325
#	69590
#	83229
#	96253
#	111313
#	123218
#	139300
#	154122
#	167962
#	184304
#	199923
#	216423
#	228473
#	247977
#	263852
#
# Disc length: 3831 seconds
#
# Revision: 2
# Processed by: cddbd v1.4PL0 Copyright (c) Steve Scherf et al.
# Submitted via: CDex 1.51
#
DISCID=070ef512
DTITLE=B.B. King - Giants Of Blues Vol.1 [CD 1)
DYEAR=1998
DGENRE=Blues
TTITLE0=Every day (I have the blues)
TTITLE1=You've done lost you're good thing now
TTITLE2=Evil child
TTITLE3=It's my own fault baby
TTITLE4=Army of the lord
TTITLE5=I'm working on the building
TTITLE6=BB boogie
TTITLE7=I never heard a man
TTITLE8=Long nights
TTITLE9=Mr. Pawnbroker
TTITLE10=Servant's prayer
TTITLE11=The other night blues
TTITLE12=Walkin' and cryin'
TTITLE13=Outside help
TTITLE14=Paying the cost to be the boss
TTITLE15=Sweet sixteen
TTITLE16=The letter
TTITLE17=How blue can you get
EXTD=YEAR: 1998
EXTT0=
EXTT1=
EXTT2=
EXTT3=
EXTT4=
EXTT5=
EXTT6=
EXTT7=
EXTT8=
EXTT9=
EXTT10=
EXTT11=
EXTT12=
EXTT13=
EXTT14=
EXTT15=
EXTT16=
EXTT17=
PLAYORDER=
